HIERARCHY
ROOT Hip
{
	OFFSET 0 1.131 0.0052
	CHANNELS 6 Xposition Yposition Zposition Xrotation Yrotation Zrotation
	JOINT Abdomen
	{
		OFFSET 0 -0.047353 -0.05
		CHANNELS 3 Xrotation Zrotation Yrotation
		JOINT Chest
		{
			OFFSET 0 0.132153 0.007439
			CHANNELS 3 Xrotation Zrotation Yrotation
			JOINT Neck
			{
				OFFSET 0 0.3078 0.006161
				CHANNELS 3 Xrotation Zrotation Yrotation
				JOINT Head_comp
				{
					OFFSET 0 0.0884 0.013
					CHANNELS 3 Xrotation Yrotation Zrotation
					End Site
					{
						OFFSET -0 0.156 0.0624
					}
				}
			}
			JOINT Left_Collar
			{
				OFFSET 0.02282 0.250342 0.017193
				CHANNELS 2 Yrotation Zrotation
				JOINT Left_Shoulder
				{
					OFFSET 0.15421 0 0
					CHANNELS 3 Xrotation Yrotation Zrotation
					JOINT Left_Forearm
					{
						OFFSET 0.265212 0 0
						CHANNELS 2 Yrotation Xrotation
						JOINT Left_Hand
						{
							OFFSET 0.27571 0 0
							CHANNELS 2 Zrotation Yrotation
							JOINT L1ProxPhalanx
							{
								OFFSET 0.014142 0.001733 0.014142
								CHANNELS 3 Yrotation Zrotation Xrotation
								JOINT L1MidPhalanx
								{
									OFFSET 0.04 0 0
									CHANNELS 1 Zrotation
									JOINT L1DistPhalanx
									{
										OFFSET 0.035 0 0
										CHANNELS 1 Zrotation
										End Site
										{
											OFFSET 0.029 -0 -0
										}
									}
								}
							}
							JOINT L2ProxPhalanx
							{
								OFFSET 0.0821037 0.001578 0.0219996
								CHANNELS 2 Yrotation Zrotation
								JOINT L2MidPhalanx
								{
									OFFSET 0.04 0 0
									CHANNELS 1 Zrotation
									JOINT L2DistPhalanx
									{
										OFFSET 0.028 0 0
										CHANNELS 1 Zrotation
										End Site
										{
											OFFSET 0.02 -0 -0
										}
									}
								}
							}
							JOINT L3ProxPhalanx
							{
								OFFSET 0.083 0 0
								CHANNELS 2 Yrotation Zrotation
								JOINT L3MidPhalanx
								{
									OFFSET 0.053 0 0
									CHANNELS 1 Zrotation
									JOINT L3DistPhalanx
									{
										OFFSET 0.03 0 0
										CHANNELS 1 Zrotation
										End Site
										{
											OFFSET 0.023 -0 -0
										}
									}
								}
							}
							JOINT L4ProxPhalanx
							{
								OFFSET 0.077274 -0.000761 -0.0207055
								CHANNELS 2 Yrotation Zrotation
								JOINT L4MidPhalanx
								{
									OFFSET 0.05 0 0
									CHANNELS 1 Zrotation
									JOINT L4DistPhalanx
									{
										OFFSET 0.03 0 0
										CHANNELS 1 Zrotation
										End Site
										{
											OFFSET 0.023 -0 -0
										}
									}
								}
							}
							JOINT L5ProxPhalanx
							{
								OFFSET 0.0675499 -0.001644 -0.039
								CHANNELS 2 Yrotation Zrotation
								JOINT L5MidPhalanx
								{
									OFFSET 0.04 0 0
									CHANNELS 1 Zrotation
									JOINT L5DistPhalanx
									{
										OFFSET 0.021 0 0
										CHANNELS 1 Zrotation
										End Site
										{
											OFFSET 0.022 -0 -0
										}
									}
								}
							}
						}
					}
				}
			}
			JOINT Right_Collar
			{
				OFFSET -0.02282 0.250342 0.017193
				CHANNELS 2 Yrotation Zrotation
				JOINT Right_Shoulder
				{
					OFFSET -0.15421 0 0
					CHANNELS 3 Xrotation Yrotation Zrotation
					JOINT Right_Forearm
					{
						OFFSET -0.265212 0 0
						CHANNELS 2 Yrotation Xrotation
						JOINT Right_Hand
						{
							OFFSET -0.27571 3e-006 0
							CHANNELS 2 Zrotation Yrotation
							JOINT R1ProxPhalanx
							{
								OFFSET -0.014142 0.001733 0.014142
								CHANNELS 3 Yrotation Zrotation Xrotation
								JOINT R1MidPhalanx
								{
									OFFSET -0.04 0 0
									CHANNELS 1 Zrotation
									JOINT R1DistPhalanx
									{
										OFFSET -0.035 0 0
										CHANNELS 1 Zrotation
										End Site
										{
											OFFSET -0.029 -0 -0
										}
									}
								}
							}
							JOINT R2ProxPhalanx
							{
								OFFSET -0.0821037 0.001578 0.0219996
								CHANNELS 2 Yrotation Zrotation
								JOINT R2MidPhalanx
								{
									OFFSET -0.04 0 0
									CHANNELS 1 Zrotation
									JOINT R2DistPhalanx
									{
										OFFSET -0.028 0 0
										CHANNELS 1 Zrotation
										End Site
										{
											OFFSET -0.02 -0 -0
										}
									}
								}
							}
							JOINT R3ProxPhalanx
							{
								OFFSET -0.083 0 0
								CHANNELS 2 Yrotation Zrotation
								JOINT R3MidPhalanx
								{
									OFFSET -0.053 0 0
									CHANNELS 1 Zrotation
									JOINT R3DistPhalanx
									{
										OFFSET -0.03 0 0
										CHANNELS 1 Zrotation
										End Site
										{
											OFFSET -0.023 -0 -0
										}
									}
								}
							}
							JOINT R4ProxPhalanx
							{
								OFFSET -0.077274 -0.000761 -0.0207055
								CHANNELS 2 Yrotation Zrotation
								JOINT R4MidPhalanx
								{
									OFFSET -0.05 0 0
									CHANNELS 1 Zrotation
									JOINT R4DistPhalanx
									{
										OFFSET -0.03 0 0
										CHANNELS 1 Zrotation
										End Site
										{
											OFFSET -0.023 -0 -0
										}
									}
								}
							}
							JOINT R5ProxPhalanx
							{
								OFFSET -0.0675499 -0.001644 -0.039
								CHANNELS 2 Yrotation Zrotation
								JOINT R5MidPhalanx
								{
									OFFSET -0.04 0 0
									CHANNELS 1 Zrotation
									JOINT R5DistPhalanx
									{
										OFFSET -0.021 0 0
										CHANNELS 1 Zrotation
										End Site
										{
											OFFSET -0.022 -0 -0
										}
									}
								}
							}
						}
					}
				}
			}
		}
	}
	JOINT Left_Thigh
	{
		OFFSET 0.1118 -0.1612 -0.0442
		CHANNELS 3 Xrotation Zrotation Yrotation
		JOINT Left_Shin
		{
			OFFSET 0 -0.477856 0
			CHANNELS 1 Xrotation
			JOINT Left_Foot
			{
				OFFSET 0 -0.431952 0
				CHANNELS 2 Xrotation Zrotation
				JOINT Left_Toe
				{
					OFFSET 0 -0.0442 0.119
					CHANNELS 1 Xrotation
					End Site
					{
						OFFSET -0 -0 0.07
					}
				}
			}
		}
	}
	JOINT Right_Thigh
	{
		OFFSET -0.1118 -0.1612 -0.0442
		CHANNELS 3 Xrotation Zrotation Yrotation
		JOINT Right_Shin
		{
			OFFSET 0 -0.477856 0
			CHANNELS 1 Xrotation
			JOINT Right_Foot
			{
				OFFSET 0 -0.431952 0
				CHANNELS 2 Xrotation Zrotation
				JOINT Right_Toe
				{
					OFFSET 0 -0.0442 0.119
					CHANNELS 1 Xrotation
					End Site
					{
						OFFSET -0 -0 0.07
					}
				}
			}
		}
	}
}
MOTION
Frames: 5
Frame Time: 0.009975
-0.101252 -0.0600832 0.0463959 -1.51813e-012 4.10465e-008 -5.10951e-006 0 -0 0 0 -0 0 0 -0 0 -0.712561 0.290227 6.68283e-012 8.27208 -31.015 -168.585 -48.2765 143.384 -28.3086 -7.17761 3.72125 -16.9043 -40.5316 -43.5896 103.283 -7.10789 -4.81548 2.69559 -7.40342 -2.98992 -6.72733 5.89092 0.508958 -5.4973 -5.3917 11.1257 1.19015 -12.1062 -9.35422 19.4153 3.33565 -41.2194 -1.46018 -4.89652 25.5035 -154.992 41.1567 -163.037 5.825 -5.28691 -10.3082 10.1537 22.5747 52.1345 100.952 13.9884 17.2347 -10.6838 39.5561 10.0473 9.62049 -16.3456 32.6969 19.691 15.0491 -24.44 14.3035 59.5903 -1.6982 -45.7274 -1.56979 109.352 -34.4722 0.454393 -0.664265 -0.00526769 0.0240216 -0.478384 0.664291 0 0.465799 -0.664264 -0.00539991 8.49505e-007 -0.465768 0.664291 0 
-0.101385 -0.0600818 0.0464043 2.61487e-013 4.20379e-008 -5.10948e-006 0 -0 0 0 -0 0 0 -0 0 -0.712563 0.290901 -2.31335e-011 8.27208 -31.015 -168.585 -48.2765 143.384 -28.3086 -7.17761 3.72125 -16.9043 -40.5316 -43.5896 103.283 -7.10789 -4.81548 2.69559 -7.40342 -2.98992 -6.72733 5.89092 0.508958 -5.4973 -5.3917 11.1257 1.19015 -12.1062 -9.35422 19.4153 3.33565 -41.2194 -1.46018 -4.49892 25.2741 -153.072 38.9426 -165.19 0 -5.01758 -10.7974 8.3002 21.4551 48.126 81.5182 6.10958 32.1614 -11.4896 41.0518 9.47821 9.78807 -17.6268 33.6401 19.7816 15.3997 -26.4407 14.6278 61.4987 -1.7944 -46.871 -1.60731 110.014 -36.6568 0.454924 -0.655893 -0.00520778 0.0240216 -0.478916 0.655919 0 0.46633 -0.655892 -0.00533834 1.70755e-006 -0.466301 0.655919 0 
-0.101328 -0.0600807 0.0461925 9.97646e-013 4.1127e-008 -5.10949e-006 0 -0 0 0 -0 0 0 -0 0 -0.712558 0.291264 -1.20213e-011 8.27208 -31.015 -168.585 -48.2765 143.384 -28.3086 -7.17761 3.72125 -16.9043 -40.5316 -43.5896 103.283 -7.10789 -4.81548 2.69559 -7.40342 -2.98992 -6.72733 5.89092 0.508958 -5.4973 -5.3917 11.1257 1.19015 -12.1062 -9.35422 19.4153 3.33565 -41.2194 -1.46018 -3.9298 25.0402 -152.07 39.7534 -166.89 0 -4.75421 -11.0662 6.45466 25.4334 48.9669 87.8902 8.61246 35.466 -11.7551 42.3014 9.45962 10.0732 -17.9547 35.2218 20.1109 15.6742 -27.1868 16.7062 62.3445 -1.78383 -48.3994 -1.45931 111.173 -37.487 0.441583 -0.659466 -0.00508233 0.0240216 -0.465575 0.659491 0 0.452988 -0.659465 -0.0052136 8.6658e-007 -0.452959 0.659491 0 
-0.101211 -0.06008 0.0459284 9.38814e-013 3.96453e-008 -5.10951e-006 0 -0 0 0 -0 0 0 -0 0 -0.712537 0.290962 -1.51672e-011 8.27208 -31.015 -168.585 -48.2765 143.384 -28.3086 -7.17761 3.72125 -16.9043 -40.5316 -43.5896 103.283 -7.10789 -4.81548 2.69559 -7.40342 -2.98992 -6.72733 5.89092 0.508958 -5.4973 -5.3917 11.1257 1.19015 -12.1062 -9.35422 19.4153 3.33565 -41.2194 -1.46018 -3.41996 24.7738 -151.089 40.5308 -168.586 0 -4.40357 -11.0932 4.69393 31.2148 49.2645 111.053 10.076 28.6286 -11.9331 44.3739 9.25681 10.0083 -18.2408 37.6147 20.4124 15.5153 -28.2175 19.1185 63.7637 -2.65438 -50.5407 -1.25355 111.889 -37.4235 0.424948 -0.666882 -0.00494582 0.0240216 -0.44894 0.666906 0 0.436353 -0.666881 -0.00507857 8.36698e-007 -0.436324 0.666906 0 
-0.101087 -0.0600795 0.0456584 -7.25677e-013 3.81525e-008 -5.10953e-006 0 -0 0 0 -0 0 0 -0 0 -0.712517 0.290622 -1.57447e-011 8.27208 -31.015 -168.585 -48.2765 143.384 -28.3086 -7.17761 3.72125 -16.9043 -40.5316 -43.5896 103.283 -7.10789 -4.81548 2.69559 -7.40342 -2.98992 -6.72733 5.89092 0.508958 -5.4973 -5.3917 11.1257 1.19015 -12.1062 -9.35422 19.4153 3.33565 -41.2194 -1.46018 -2.94377 24.5427 -150.044 41.3298 -170.347 0 -4.05228 -11.0712 2.93454 29.0745 52.405 148.859 13.1103 12.9693 -11.9626 46.4903 9.1129 9.72717 -18.3963 39.201 20.8567 15.4611 -29.3341 19.7361 66.0956 -4.1509 -52.2092 -1.17747 113.474 -39.8807 0.407944 -0.674693 -0.0048035 0.0240216 -0.431937 0.674715 0 0.419349 -0.674692 -0.0049378 1.70755e-006 -0.419322 0.674715 0 
